<svg xmlns="http://www.w3.org/2000/svg" width="50" height="40" viewBox="0 0 50 40">
<defs>
<linearGradient id="a" x1="49.989%" x2="49.989%" y1="96.959%" y2="-.011%">
<stop offset="0%" stop-color="#8E63A6"></stop><stop offset="18.021%" stop-color="#8A6AAB"></stop>
<stop offset="40.55%" stop-color="#7D7CBA"></stop><stop offset="69.776%" stop-color="#689AD2"></stop>
<stop offset="100%" stop-color="#4DC2F1"></stop></linearGradient></defs>
<g fill="none" fill-rule="nonzero">
<path fill="url(#a)" d="M28.183 34.72l-4.787-11.247a1.12 1.12 0 0 0 .175-1.497 1.108 1.108 0 0 0-1.47-.306l-1.697-1.194 2.47-.989 1.606-5.875c.527-.1.908-.562.908-1.1 0-.539-.38-1-.908-1.1l-1.315-5.463a1.12 1.12 0 0 0 .118-1.177 1.11 1.11 0 0 0-1.45-.528l-6.057-3.167A1.113 1.113 0 0 0 13.607.77L2.01 2.207a1.115 1.115 0 0 0-1.58.105 1.127 1.127 0 0 0 .105 1.585v13.828a1.117 1.117 0 0 0 0 1.908v15.63a1.121 1.121 0 0 0-.35 1.244 1.113 1.113 0 0 0 1.461.666l3.074 1.764a1.11 1.11 0 0 0 2.116.357l2.995-.88a1.11 1.11 0 0 0 1.974-.601 1.119 1.119 0 0 0-.597-1.095l-.092-13.266 2.295 2.667c-.111.31-.08.655.088.939.168.284.454.477.778.528l3.644 9.25a1.123 1.123 0 0 0-.355 1.21 1.114 1.114 0 0 0 2.07.135h4.996a1.114 1.114 0 0 0 2.105-.653l.86-.65a1.115 1.115 0 0 0 1.381-.925 1.118 1.118 0 0 0-.803-1.233h.008zM6.801 38.3a1.116 1.116 0 0 0-.368-.41l1.328-5.217 2.11 4.262a1.12 1.12 0 0 0-.283.546l-2.787.818zm20.257-3.283l-2.929-2.102-2.342-5.998.776-2.942 4.642 10.911a1.123 1.123 0 0 0-.147.138v-.007zm-8.028-5.753l.083-4.831.962-.484 1.175 3.007-.864 3.282-1.356-.974zm1.215 1.505l-1.328 5.042.103-5.922 1.225.88zm-8.761-9.977l4.599-2.907 1.89 1.846c-.077.131-.127.276-.148.427l-6.341.634zm-5.561 16.92l-1.504-6.288 1.504-2.45 1.48 2.993-1.462 5.744-.018.002zm8.279-35.57a.98.98 0 0 0 .108.04l-1.193 5.459-2.397-.989 3.482-4.51zM13.005 8.15l-.682 3.132-1.379.874L8.4 9.662l1.995-2.587 2.61 1.075zm-4.922 1.92l2.416 2.36-3.184 2.017-1.035-2.039 1.803-2.338zm-2.06 1.827L2.167 4.291 7.714 9.71l-1.691 2.188zm4.854.899l.917.896-1.379 6.34a.98.98 0 0 0-.245.034l-2.614-5.157 3.321-2.113zm.445-.283l.846-.538-.245 1.124-.6-.586zm.903 1.6l1.811 1.768-3.108 4.168 1.297-5.936zm-2.518 6.195c-.107.09-.196.201-.262.326l-3.41-.907-.882-3.302 1.96-1.231 2.594 5.114zm-4.244-.74l-3.23-.858v-.031a1.08 1.08 0 0 0-.066-.363l2.53-1.602.766 2.853zm-3.366-.362l3.52.936 1.557 5.819-1.198 1.955-4.138-8.378c.107-.093.195-.206.26-.332zm4.085 1.087l3.123.82v.032c-.003.302.117.592.332.804L7.544 25.36l-1.362-5.067zm3.572 2.433l-1.43 5.596-.612-2.279 2.042-3.317zm4.652-6.478l1.299 1.268-4.246 2.679 2.947-3.947zm.31-.41l3.983-5.333 4.464 1.846c-.01.058-.016.117-.018.176.002.095.016.19.04.281l-7.035 4.423-1.434-1.393zm8.641-3.973l-4.342-1.795 2.819-3.775c.14.063.293.095.447.095l1.264 5.263c-.07.06-.134.13-.188.205v.007zm-4.83-1.99L16.69 9.12l4.55-2.89-2.712 3.645zm-.318.424l-3.864 5.172-1.99-1.945.421-1.932L16.16 9.45l2.049.85zm-5.277.595l.547-2.545 2.091.861-2.638 1.684zM8.03 9.307L2.365 3.768l7.538 3.104L8.03 9.307zM5.677 12.35L4.48 13.904 2.257 5.602l3.42 6.749zm.256.506l.947 1.867-1.866 1.182-.368-1.379 1.287-1.67zM4.56 16.193l-2.35 1.49 2.042-2.645.308 1.155zm1.1 12.238l-1.404 2.287-2.363-9.893L5.66 28.43zm.585.026l1.107-1.813.727 2.69-.476 1.864-1.358-2.74zM8.35 30.36l1.374 5.128-1.77-3.573.396-1.555zm.26-1.026l1.547-6.082.084 12.183-1.632-6.1zm10.553-7.725l.725 1.857-.763.385.038-2.242zm-.665-.275c.051.02.104.036.157.05l-.047 2.722-3.29 1.663v-.01l3.18-4.425zm-2.95 4.895l3.05-1.535-.074 4.208-2.98-2.14a1.063 1.063 0 0 0 .004-.533zm6.579-2.603l-.656 2.488-.935-2.396 1.125-.566c.103.202.266.367.466.474zm-.56 4.141l1.797 4.607-2.532-1.809.735-2.798zm-.035-5.128l-1.184.595-.784-2.006c.037-.027.072-.057.106-.089l1.879 1.321c-.01.059-.015.118-.017.177v.002zm-1.69-2.976a1.104 1.104 0 0 0-1.512-.3l-1.801-1.758 6.899-4.357c.036.042.076.081.118.117l-1.478 5.403-2.227.895zM21.226 5.63l-5.105 3.243-2.514-1.026 1.225-5.61c.212-.03.411-.122.572-.265l5.804 3.032a1.1 1.1 0 0 0-.039.273c0 .12.02.239.057.353zm-7.43-3.807L10.23 6.449 2.336 3.198a.424.424 0 0 0 0-.053l11.39-1.418a.84.84 0 0 0 .071.097zm-9.712 12.59L1.579 17.66a.833.833 0 0 0-.086-.032V4.732l2.592 9.682zM3.88 31.335l-2.293 3.742-.094-.029V21.356l2.387 9.98zm-1.852 4l2.02-3.294 1.372 5.744c-.14.053-.268.135-.376.24L2.306 36.45c.032-.102.05-.208.05-.316.002-.3-.118-.588-.33-.8h.002zm9.503-14.034l6.347-.632c.044.134.113.259.204.367l-3.186 4.414a1.125 1.125 0 0 0-.433-.088 1.141 1.141 0 0 0-.371.074l-2.952-3.428c.214-.178.352-.431.389-.707h.002zm3.772 5.92l3.21 2.303-.102 5.949-3.208-8.144c.036-.047.067-.074.1-.108zm3.894 9.52l1.489-5.654 3.016 2.164 1.363 3.487c-.19.114-.342.28-.437.48h-4.992c-.096-.199-.249-.365-.439-.477zm6.435-.163h-.077l-1.087-2.787 2.328 1.672c-.032.104-.05.212-.05.322 0 .154.032.307.093.449l-.651.49a1.105 1.105 0 0 0-.552-.146h-.004z"></path>
</g></svg>
